<?xml version="1.0" encoding="UTF-8"?>
<svg xmlns="http://www.w3.org/2000/svg" xmlns:xlink="http://www.w3.org/1999/xlink" width="20px" height="20px" viewBox="0 0 50 50" version="1.1">
<g id="surface1">
<path style=" stroke:none;fill-rule:nonzero;fill:rgb(0%,0%,0%);fill-opacity:0.2;" d="M 0.5 25 C 5.195312 15.789062 14.660156 9.988281 25 9.988281 C 35.339844 9.988281 44.804688 15.789062 49.5 25 C 44.804688 34.210938 35.339844 40.011719 25 40.011719 C 14.660156 40.011719 5.195312 34.210938 0.5 25 Z M 25 35 C 30.523438 35 35 30.523438 35 25 C 35 19.476562 30.523438 15 25 15 C 19.476562 15 15 19.476562 15 25 C 15 30.523438 19.476562 35 25 35 Z M 25 30 C 22.238281 30 20 27.761719 20 25 C 20 22.238281 22.238281 20 25 20 C 27.761719 20 30 22.238281 30 25 C 30 27.761719 27.761719 30 25 30 Z M 25 30 "/>
</g>
</svg>
